<?xml version="1.0" encoding="utf-8"?>
<!-- Generator: Adobe Illustrator 27.0.0, SVG Export Plug-In . SVG Version: 6.00 Build 0)  -->
<svg version="1.1" id="Livello_1" xmlns="http://www.w3.org/2000/svg" xmlns:xlink="http://www.w3.org/1999/xlink" x="0px" y="0px"
	 viewBox="0 0 32 32" style="enable-background:new 0 0 32 32;" xml:space="preserve">
<style type="text/css">
	.st0{fill:#A0A0A0;}
</style>
<path class="st0" d="M24.8,30.8c-0.2,0-0.4-0.1-0.6-0.2l-8.2-6l-8.2,6c-0.4,0.3-1.1,0.2-1.4-0.2c-0.2-0.3-0.2-0.6-0.1-0.9l3.2-9.7
	l-8.2-6c-0.4-0.3-0.5-0.9-0.2-1.4c0-0.2,0.3-0.4,0.6-0.4h10.2L15,2.3c0.2-0.5,0.7-0.8,1.3-0.6C16.6,1.8,16.9,2,17,2.3l3.1,9.7h10.2
	c0.6,0,1,0.5,1,1c0,0.3-0.2,0.6-0.4,0.8l-8.2,6l3.1,9.7c0.1,0.4,0,0.9-0.4,1.1C25.2,30.7,25,30.8,24.8,30.8z M16,22.4
	c0.2,0,0.4,0.1,0.6,0.2l6.3,4.6l-2.4-7.4c-0.1-0.4,0-0.9,0.4-1.1l6.3-4.6h-7.8c-0.4,0-0.8-0.3-1-0.7L16,5.9l-2.4,7.4
	c-0.1,0.4-0.5,0.7-0.9,0.7H4.8l6.3,4.6c0.4,0.3,0.5,0.7,0.4,1.1l-2.4,7.4l6.3-4.6C15.6,22.4,15.8,22.4,16,22.4z"/>
</svg>
