<?xml version="1.0" encoding="utf-8"?>
<!-- Generator: Adobe Illustrator 27.0.0, SVG Export Plug-In . SVG Version: 6.00 Build 0)  -->
<svg version="1.1" id="Livello_1" xmlns="http://www.w3.org/2000/svg" xmlns:xlink="http://www.w3.org/1999/xlink" x="0px" y="0px"
	 viewBox="0 0 22 22" style="enable-background:new 0 0 22 22;" xml:space="preserve">
<style type="text/css">
	.st0{fill:#505050;}
	.st1{fill:none;stroke:#505050;stroke-linecap:round;stroke-linejoin:round;}
</style>
<path class="st0" d="M14.5,3h-7C6.7,3,6,3.7,6,4.5S6.7,6,7.5,6H8v5l-2,2h10l-2-2V6h0.5C15.3,6,16,5.3,16,4.5S15.3,3,14.5,3z
	 M10.5,17l0.5,3l0.5-3v-4h-1V17z"/>
<path class="st1" d="M13.5,21.2c-5.6,1.4-11.3-2.1-12.7-7.7S2.9,2.2,8.5,0.8s11.3,2.1,12.7,7.7c0.3,1.3,0.4,2.7,0.2,4 M20.5,15.5
	c0-1.1-0.9-2-2-2s-2,0.9-2,2"/>
<path class="st0" d="M21.5,16h-6c-0.3,0-0.5,0.2-0.5,0.5v5c0,0.3,0.2,0.5,0.5,0.5h6c0.3,0,0.5-0.2,0.5-0.5v-5
	C22,16.2,21.8,16,21.5,16z M18.5,20c-0.6,0-1-0.4-1-1s0.4-1,1-1s1,0.4,1,1S19.1,20,18.5,20z"/>
</svg>
