<?xml version="1.0" encoding="utf-8"?>
<!-- Generator: Adobe Illustrator 27.0.0, SVG Export Plug-In . SVG Version: 6.00 Build 0)  -->
<svg version="1.1" id="Livello_1" xmlns="http://www.w3.org/2000/svg" xmlns:xlink="http://www.w3.org/1999/xlink" x="0px" y="0px"
	 viewBox="0 0 16 16" style="enable-background:new 0 0 16 16;" xml:space="preserve">
<style type="text/css">
	.st0{fill:#505050;}
</style>
<path class="st0" d="M8,0C3.6,0,0,3.6,0,8s3.6,8,8,8s8-3.6,8-8S12.4,0,8,0z M12.6,8.8l-6.3,3.7c-0.4,0.2-1,0.1-1.2-0.3
	C5,12,4.9,11.8,4.9,11.7V4.3c0-0.5,0.4-0.9,0.9-0.9c0.2,0,0.3,0,0.4,0.1l6.3,3.7C13,7.5,13.2,8,12.9,8.4C12.9,8.6,12.7,8.7,12.6,8.8
	z"/>
</svg>
