<?xml version="1.0" encoding="utf-8"?>
<!-- Generator: Adobe Illustrator 27.0.0, SVG Export Plug-In . SVG Version: 6.00 Build 0)  -->
<svg version="1.1" id="Livello_1" xmlns="http://www.w3.org/2000/svg" xmlns:xlink="http://www.w3.org/1999/xlink" x="0px" y="0px"
	 viewBox="0 0 32 32" style="enable-background:new 0 0 32 32;" xml:space="preserve">
<style type="text/css">
	.st0{fill:#A0A0A0;}
</style>
<path class="st0" d="M31,26.8H1c-0.4,0-0.7-0.3-0.8-0.8V6c0-0.4,0.3-0.7,0.8-0.8h30c0.4,0,0.7,0.3,0.8,0.8v20
	C31.7,26.4,31.4,26.7,31,26.8z M1.8,25.2h28.5V6.8H1.8V25.2z"/>
<path class="st0" d="M16.9,23.6H4c-0.4,0-0.7-0.3-0.8-0.8v-4.4c0-1.4,1.1-2.5,2.4-2.5c0,0,0,0,0,0h1.6c0.3,0,0.6,0.2,0.7,0.5
	c0.5,1.4,2,2.1,3.4,1.6c0.8-0.3,1.4-0.9,1.6-1.6c0.1-0.3,0.4-0.5,0.7-0.5h1.6c1.4,0,2.4,1.1,2.4,2.5l0,0v4.4
	C17.7,23.2,17.3,23.6,16.9,23.6C16.9,23.6,16.9,23.6,16.9,23.6z M4.8,22.1h11.4v-3.6c0-0.5-0.4-0.9-0.9-1c0,0,0,0,0,0h-1.1
	c-1,2-3.5,2.9-5.6,1.8c-0.8-0.4-1.4-1-1.8-1.8h-1c-0.5,0-1,0.4-1,1V22.1z"/>
<path class="st0" d="M10.5,19.8c-1.8,0-3.3-1.1-3.9-2.8c-0.2-0.4-0.2-0.9-0.2-1.4v-3c-0.1-2.3,1.7-4.3,4-4.4s4.3,1.7,4.4,4
	c0,0.1,0,0.3,0,0.4v3c0,0.5-0.1,0.9-0.2,1.4C13.8,18.7,12.2,19.8,10.5,19.8z M10.5,9.9c-1.5,0-2.7,1.2-2.7,2.7v3
	c0.1,1.5,1.4,2.6,2.8,2.5c1.3-0.1,2.4-1.2,2.5-2.5v-3C13.1,11.1,11.9,9.9,10.5,9.9z M27.5,10.3h-8c-0.4,0-0.8-0.3-0.8-0.8
	s0.3-0.8,0.8-0.8h8c0.4,0,0.8,0.3,0.8,0.8S27.9,10.3,27.5,10.3L27.5,10.3z M25.5,14.3h-6c-0.4,0-0.8-0.3-0.8-0.8s0.3-0.8,0.8-0.8h6
	c0.4,0,0.8,0.3,0.8,0.8S25.9,14.3,25.5,14.3z M27.5,18.2h-8c-0.4,0-0.8-0.3-0.8-0.8s0.3-0.8,0.8-0.8h8c0.4,0,0.8,0.3,0.8,0.8
	S27.9,18.2,27.5,18.2L27.5,18.2z M24.5,22.2h-5c-0.4,0-0.8-0.3-0.8-0.8s0.3-0.8,0.8-0.8h5c0.4,0,0.8,0.3,0.8,0.8
	S24.9,22.2,24.5,22.2z"/>
</svg>
