<?xml version="1.0" encoding="utf-8"?>
<!-- Generator: Adobe Illustrator 27.0.0, SVG Export Plug-In . SVG Version: 6.00 Build 0)  -->
<svg version="1.1" id="Livello_1" xmlns="http://www.w3.org/2000/svg" xmlns:xlink="http://www.w3.org/1999/xlink" x="0px" y="0px"
	 viewBox="0 0 32 32" style="enable-background:new 0 0 32 32;" xml:space="preserve">
<style type="text/css">
	.st0{fill:#A0A0A0;}
</style>
<path class="st0" d="M8.8,31.8c-0.2,0-0.4-0.1-0.5-0.2c-0.3-0.3-0.3-0.8,0-1.1L29.9,8.7l-6.7-6.7L1.5,23.7c-0.3,0.3-0.8,0.3-1.1,0
	c-0.3-0.3-0.3-0.8,0-1.1L22.7,0.5c0.3-0.3,0.8-0.3,1.1,0l7.7,7.7c0.3,0.3,0.3,0.8,0,1.1L9.3,31.5C9.2,31.7,9,31.8,8.8,31.8z"/>
<path class="st0" d="M9.6,26.3c-0.2,0-0.4-0.1-0.5-0.2c-0.3-0.3-0.3-0.8,0-1c0,0,0,0,0,0l18-18c0.3-0.3,0.8-0.3,1.1,0
	c0.3,0.3,0.3,0.7,0,1l-18,18C10,26.2,9.8,26.3,9.6,26.3z M1,31h7.8L1,23.2V31z"/>
<path class="st0" d="M8.8,31.8H1c-0.4,0-0.7-0.3-0.8-0.8v-7.8c0-0.3,0.2-0.6,0.5-0.7c0.3-0.1,0.6,0,0.8,0.2l7.8,7.8
	c0.2,0.2,0.3,0.5,0.2,0.8C9.4,31.6,9.1,31.7,8.8,31.8z M1.8,30.2H7L1.8,25L1.8,30.2z"/>
</svg>
