<?xml version="1.0" encoding="utf-8"?>
<!-- Generator: Adobe Illustrator 27.0.0, SVG Export Plug-In . SVG Version: 6.00 Build 0)  -->
<svg version="1.1" id="Livello_1" xmlns="http://www.w3.org/2000/svg" xmlns:xlink="http://www.w3.org/1999/xlink" x="0px" y="0px"
	 viewBox="0 0 20 20" style="enable-background:new 0 0 20 20;" xml:space="preserve">
<style type="text/css">
	.st0{fill:none;stroke:#505050;stroke-linecap:round;stroke-linejoin:round;}
</style>
<path class="st0" d="M15.5,4.5h-11 M4.5,7.5h9 M4.5,10.5h11 M14.5,14.5l-4.5,5v-5H5.3c-2.6,0-4.8-2.1-4.8-4.8c0,0,0,0,0,0V5.3
	c0-2.6,2.1-4.8,4.8-4.8c0,0,0,0,0,0h9.5c2.6,0,4.8,2.1,4.8,4.8l0,0v4.5c0,2.6-2.1,4.8-4.8,4.8l0,0H14.5z"/>
</svg>
