<?xml version="1.0" encoding="utf-8"?>
<!-- Generator: Adobe Illustrator 27.0.0, SVG Export Plug-In . SVG Version: 6.00 Build 0)  -->
<svg version="1.1" id="Livello_1" xmlns="http://www.w3.org/2000/svg" xmlns:xlink="http://www.w3.org/1999/xlink" x="0px" y="0px"
	 viewBox="0 0 32 32" style="enable-background:new 0 0 32 32;" xml:space="preserve">
<style type="text/css">
	.st0{fill:#A0A0A0;}
</style>
<path class="st0" d="M1.5,27c-0.4,0-0.7-0.3-0.8-0.8V1.1c0-0.4,0.3-0.8,0.8-0.8h18.8c0.4,0,0.7,0.3,0.8,0.7c0,0,0,0,0,0v10.1
	c0,0.4-0.3,0.8-0.8,0.8s-0.8-0.3-0.8-0.8V1.9H2.3v24.4C2.3,26.6,2,27,1.5,27C1.6,27,1.5,27,1.5,27z M20.4,27h-7.9
	c-0.4,0-0.8-0.3-0.8-0.8s0.3-0.8,0.8-0.8h7.1v-4.1c0-0.4,0.3-0.8,0.8-0.8s0.8,0.3,0.8,0.8v4.8C21.1,26.6,20.8,27,20.4,27
	C20.4,27,20.4,27,20.4,27z"/>
<path class="st0" d="M12.5,31.6c-0.1,0-0.2,0-0.3-0.1l-11-4.7c-0.3-0.1-0.4-0.4-0.4-0.7V1.1c0-0.3,0.1-0.5,0.4-0.6
	c0.2-0.1,0.5-0.2,0.7-0.1l11,4.7c0.3,0.1,0.4,0.4,0.4,0.7v25.1c0,0.3-0.1,0.5-0.3,0.6C12.8,31.6,12.7,31.7,12.5,31.6z M2.3,25.7
	l9.5,4.1V6.3L2.3,2.2V25.7z M24.3,23c-0.2,0-0.4-0.1-0.5-0.2c-0.3-0.3-0.3-0.8,0-1.1l5.7-5.7l-5.7-5.7c-0.3-0.3-0.3-0.8,0-1.1
	C24,9,24.5,9,24.8,9.3l6.2,6.2c0.3,0.3,0.3,0.8,0,1.1l-6.2,6.2C24.7,22.9,24.5,23,24.3,23z"/>
<path class="st0" d="M29.2,16.8h-13c-0.4,0-0.8-0.3-0.8-0.8s0.3-0.8,0.8-0.8h13c0.4,0,0.8,0.3,0.8,0.8S29.6,16.8,29.2,16.8z"/>
</svg>
