<?xml version="1.0" encoding="utf-8"?>
<!-- Generator: Adobe Illustrator 27.0.0, SVG Export Plug-In . SVG Version: 6.00 Build 0)  -->
<svg version="1.1" id="Livello_1" xmlns="http://www.w3.org/2000/svg" xmlns:xlink="http://www.w3.org/1999/xlink" x="0px" y="0px"
	 viewBox="0 0 20 20" style="enable-background:new 0 0 20 20;" xml:space="preserve">
<style type="text/css">
	.st0{fill:none;stroke:#505050;stroke-linecap:round;stroke-linejoin:round;}
</style>
<path class="st0" d="M19.5,18.5c-2.2,0-4-1.8-4-4 M4.5,14.5c0,2.2-1.8,4-4,4 M15.5,14.5V9c0-2.4-1.6-4.6-3.9-5.3 M8.4,3.7
	C6.1,4.4,4.5,6.6,4.5,9v5.5 M11.6,3.7c0.7-0.9,0.5-2.1-0.3-2.8c-0.9-0.7-2.1-0.5-2.8,0.3C7.9,2,7.9,3,8.4,3.7 M12.6,18.5H7.4
	 M7.4,18.5H0.5 M19.5,18.5h-6.9 M12.6,18.5c-1.5,1.3-3.7,1.3-5.2,0"/>
</svg>
