<?xml version="1.0" encoding="utf-8"?>
<!-- Generator: Adobe Illustrator 27.0.0, SVG Export Plug-In . SVG Version: 6.00 Build 0)  -->
<svg version="1.1" id="Livello_1" xmlns="http://www.w3.org/2000/svg" xmlns:xlink="http://www.w3.org/1999/xlink" x="0px" y="0px"
	 viewBox="0 0 16 16" style="enable-background:new 0 0 16 16;" xml:space="preserve">
<style type="text/css">
	.st0{fill:#A0A0A0;}
</style>
<path class="st0" d="M12,9.9h-2c-0.4,0-0.8-0.3-0.8-0.8S9.6,8.4,10,8.4h2c0.4,0,0.8,0.3,0.8,0.8S12.4,9.9,12,9.9z M3.4,13.9
	c-1.9,0-3.4-1.5-3.4-3.4s1.5-3.4,3.4-3.4c0,0,0,0,0,0c0.4,0,0.8,0.3,0.8,0.7c0,0.4-0.3,0.8-0.7,0.8c0,0,0,0,0,0
	c-1,0-1.9,0.8-1.9,1.9s0.8,1.9,1.9,1.9c0,0,0,0,0,0c0.4,0,0.8,0.3,0.8,0.8S3.8,13.9,3.4,13.9C3.4,13.9,3.4,13.9,3.4,13.9z"/>
<path class="st0" d="M6,13.9c-1.9,0-3.4-1.5-3.4-3.4S4.1,7.1,6,7.1c1.9,0,3.4,1.5,3.4,3.4C9.4,12.3,7.9,13.9,6,13.9z M6,8.6
	c-1,0-1.9,0.8-1.9,1.9S5,12.4,6,12.4s1.9-0.8,1.9-1.9c0,0,0,0,0,0C7.9,9.4,7,8.6,6,8.6z"/>
<path class="st0" d="M7,11.2c-0.4,0-0.8-0.3-0.8-0.8c0-0.1-0.1-0.2-0.2-0.2c0,0,0,0,0,0c-0.4,0-0.8-0.3-0.8-0.8S5.6,8.7,6,8.7
	c1,0,1.7,0.8,1.7,1.7C7.7,10.9,7.4,11.2,7,11.2z M10,8.6H3.4C3,8.6,2.6,8.2,2.6,7.8c0-0.4,0.3-0.8,0.8-0.8H10c1,0,3.2-0.2,3.2-1.9
	c0-1-0.8-1.9-1.9-1.9c0,0,0,0,0,0H4.7C4.3,3.3,3.9,3,3.9,2.5s0.3-0.8,0.8-0.8h6.6c1.9,0,3.4,1.5,3.4,3.4C14.7,6.8,13.4,8.6,10,8.6z"
	/>
<path class="st0" d="M10.6,4.6h-2c-0.4,0-0.8-0.3-0.8-0.8s0.3-0.8,0.8-0.8h2c0.4,0,0.8,0.3,0.8,0.8S11.1,4.6,10.6,4.6z"/>
<path class="st0" d="M4.7,8.6c-1.9,0-3.4-1.5-3.4-3.4c0-1.9,1.5-3.4,3.4-3.4s3.4,1.5,3.4,3.4c0,0,0,0,0,0C8.1,7.1,6.6,8.6,4.7,8.6z
	 M4.7,3.3c-1,0-1.9,0.8-1.9,1.9s0.8,1.9,1.9,1.9s1.9-0.8,1.9-1.9c0,0,0,0,0,0C6.6,4.1,5.7,3.3,4.7,3.3z"/>
<path class="st0" d="M5.7,5.9c-0.4,0-0.8-0.3-0.8-0.8C4.9,5.1,4.8,5,4.7,5C4.3,5,3.9,4.7,3.9,4.2s0.3-0.8,0.8-0.8
	c0.9,0,1.7,0.7,1.7,1.7C6.4,5.6,6.1,5.9,5.7,5.9z M12.6,13.9H3c-0.4,0-0.8-0.3-0.8-0.8s0.3-0.8,0.8-0.8h9.6c1,0,1.9-0.8,1.9-1.9
	s-0.8-1.9-1.9-1.9c0,0,0,0,0,0H6c-0.4,0-0.8-0.3-0.8-0.8c0-0.4,0.3-0.8,0.8-0.8h6.6c1.9,0,3.4,1.5,3.4,3.4S14.5,13.9,12.6,13.9
	L12.6,13.9z M10.3,3c-0.2,0-0.4-0.1-0.5-0.2C9.5,2.5,9.5,2,9.8,1.7l1.3-1.4c0.3-0.3,0.8-0.3,1.1,0c0.3,0.3,0.3,0.7,0,1l-1.3,1.3
	C10.7,2.9,10.5,3,10.3,3z"/>
</svg>
